<svg xmlns="http://www.w3.org/2000/svg" xmlns:xlink="http://www.w3.org/1999/xlink" viewBox="0 0 195.69 94.98"><defs><style>.cls-1,.cls-21,.cls-23,.cls-6{fill:none;}.cls-2{clip-path:url(#clip-path);}.cls-3{fill:#5a88ff;fill-opacity:0.3;}.cls-4{fill:url(#linear-gradient);}.cls-5{fill:url(#linear-gradient-2);}.cls-21,.cls-6{stroke:#12218d;}.cls-21,.cls-23,.cls-6{stroke-linecap:round;}.cls-6{stroke-linejoin:round;stroke-width:2px;}.cls-7{fill:url(#linear-gradient-3);}.cls-8{fill:url(#linear-gradient-4);}.cls-9{fill:url(#linear-gradient-5);}.cls-10{fill:url(#linear-gradient-6);}.cls-11{fill:url(#linear-gradient-7);}.cls-12{fill:url(#linear-gradient-8);}.cls-13{fill:url(#linear-gradient-9);}.cls-14{fill:url(#linear-gradient-10);}.cls-15{fill:url(#linear-gradient-11);}.cls-16{fill:url(#linear-gradient-12);}.cls-17{fill:url(#linear-gradient-13);}.cls-18{fill:url(#linear-gradient-14);}.cls-19{fill:url(#linear-gradient-15);}.cls-20{fill:url(#linear-gradient-16);}.cls-21{stroke-width:3.35px;}.cls-22{fill:#82a5ff;}.cls-23{stroke:#9afff9;stroke-width:3px;}</style><clipPath id="clip-path"><rect class="cls-1" x="31.5" y="10.17" width="128.81" height="84.81" rx="6.69"/></clipPath><linearGradient id="linear-gradient" x1="95.85" y1="-35.5" x2="95.85" y2="-51.15" gradientTransform="matrix(1, 0, 0, -1, 0.14, -25.66)" gradientUnits="userSpaceOnUse"><stop offset="0" stop-color="#5a88ff"/><stop offset="1" stop-color="#5a88ff" stop-opacity="0"/></linearGradient><linearGradient id="linear-gradient-2" x1="54.86" y1="-57.65" x2="54.86" y2="-69.15" gradientTransform="matrix(1, 0, 0, -1, 0.14, -25.66)" gradientUnits="userSpaceOnUse"><stop offset="0" stop-color="#5a88ff"/><stop offset="1" stop-color="#016bfe" stop-opacity="0.22"/></linearGradient><linearGradient id="linear-gradient-3" x1="75.86" y1="-57.65" x2="75.86" y2="-69.15" xlink:href="#linear-gradient-2"/><linearGradient id="linear-gradient-4" x1="96.86" y1="-57.65" x2="96.86" y2="-69.15" xlink:href="#linear-gradient-2"/><linearGradient id="linear-gradient-5" x1="117.86" y1="-57.65" x2="117.86" y2="-69.15" xlink:href="#linear-gradient-2"/><linearGradient id="linear-gradient-6" x1="138.86" y1="-57.65" x2="138.86" y2="-69.15" xlink:href="#linear-gradient-2"/><linearGradient id="linear-gradient-7" x1="54.86" y1="-76.65" x2="54.86" y2="-88.15" xlink:href="#linear-gradient-2"/><linearGradient id="linear-gradient-8" x1="75.86" y1="-76.65" x2="75.86" y2="-88.15" xlink:href="#linear-gradient-2"/><linearGradient id="linear-gradient-9" x1="96.86" y1="-76.65" x2="96.86" y2="-88.15" xlink:href="#linear-gradient-2"/><linearGradient id="linear-gradient-10" x1="117.86" y1="-76.65" x2="117.86" y2="-88.15" xlink:href="#linear-gradient-2"/><linearGradient id="linear-gradient-11" x1="138.86" y1="-76.65" x2="138.86" y2="-88.15" xlink:href="#linear-gradient-2"/><linearGradient id="linear-gradient-12" x1="54.86" y1="-95.65" x2="54.86" y2="-107.15" xlink:href="#linear-gradient-2"/><linearGradient id="linear-gradient-13" x1="75.86" y1="-95.65" x2="75.86" y2="-107.15" xlink:href="#linear-gradient-2"/><linearGradient id="linear-gradient-14" x1="96.86" y1="-95.65" x2="96.86" y2="-107.15" xlink:href="#linear-gradient-2"/><linearGradient id="linear-gradient-15" x1="117.86" y1="-95.65" x2="117.86" y2="-107.15" xlink:href="#linear-gradient-2"/><linearGradient id="linear-gradient-16" x1="138.86" y1="-95.65" x2="138.86" y2="-107.15" xlink:href="#linear-gradient-2"/></defs><g id="Layer_2" data-name="Layer 2"><g id="Layer_1-2" data-name="Layer 1"><g class="cls-2"><rect class="cls-3" x="31.5" y="10.17" width="128.81" height="84.81" rx="6.69"/><rect class="cls-4" x="31.67" y="9.84" width="128.64" height="10.71"/><path class="cls-5" d="M49.5,34a2,2,0,0,1,2-2h7.08a2,2,0,0,1,2,2V41a2,2,0,0,1-2,2H51.46a2,2,0,0,1-2-2Z"/><path class="cls-6" d="M51.46,37.94l2.82,2.82L59.71,32"/><path class="cls-7" d="M70.5,34a2,2,0,0,1,2-2h7.08a2,2,0,0,1,2,2V41a2,2,0,0,1-2,2H72.46a2,2,0,0,1-2-2Z"/><path class="cls-6" d="M72.46,37.94l2.82,2.82L80.71,32"/><path class="cls-8" d="M91.5,34a2,2,0,0,1,2-2h7.08a2,2,0,0,1,2,2V41a2,2,0,0,1-2,2H93.46a2,2,0,0,1-2-2Z"/><path class="cls-6" d="M93.46,37.94l2.82,2.82L101.71,32"/><path class="cls-9" d="M112.5,34a2,2,0,0,1,2-2h7.08a2,2,0,0,1,2,2V41a2,2,0,0,1-2,2h-7.08a2,2,0,0,1-2-2Z"/><path class="cls-6" d="M114.46,37.94l2.82,2.82L122.71,32"/><path class="cls-10" d="M133.5,34a2,2,0,0,1,2-2h7.08a2,2,0,0,1,2,2V41a2,2,0,0,1-2,2h-7.08a2,2,0,0,1-2-2Z"/><path class="cls-6" d="M135.46,37.94l2.82,2.82L143.71,32"/><path class="cls-11" d="M49.5,53a2,2,0,0,1,2-2h7.08a2,2,0,0,1,2,2V60a2,2,0,0,1-2,2H51.46a2,2,0,0,1-2-2Z"/><path class="cls-12" d="M70.5,53a2,2,0,0,1,2-2h7.08a2,2,0,0,1,2,2V60a2,2,0,0,1-2,2H72.46a2,2,0,0,1-2-2Z"/><path class="cls-13" d="M91.5,53a2,2,0,0,1,2-2h7.08a2,2,0,0,1,2,2V60a2,2,0,0,1-2,2H93.46a2,2,0,0,1-2-2Z"/><path class="cls-14" d="M112.5,53a2,2,0,0,1,2-2h7.08a2,2,0,0,1,2,2V60a2,2,0,0,1-2,2h-7.08a2,2,0,0,1-2-2Z"/><path class="cls-6" d="M114.46,56.94l2.82,2.82L122.71,51"/><path class="cls-15" d="M133.5,53a2,2,0,0,1,2-2h7.08a2,2,0,0,1,2,2V60a2,2,0,0,1-2,2h-7.08a2,2,0,0,1-2-2Z"/><path class="cls-6" d="M135.46,56.94l2.82,2.82L143.71,51"/><path class="cls-16" d="M49.5,72a2,2,0,0,1,2-2h7.08a2,2,0,0,1,2,2V79a2,2,0,0,1-2,2H51.46a2,2,0,0,1-2-2Z"/><path class="cls-17" d="M70.5,72a2,2,0,0,1,2-2h7.08a2,2,0,0,1,2,2V79a2,2,0,0,1-2,2H72.46a2,2,0,0,1-2-2Z"/><path class="cls-18" d="M91.5,72a2,2,0,0,1,2-2h7.08a2,2,0,0,1,2,2V79a2,2,0,0,1-2,2H93.46a2,2,0,0,1-2-2Z"/><path class="cls-19" d="M112.5,72a2,2,0,0,1,2-2h7.08a2,2,0,0,1,2,2V79a2,2,0,0,1-2,2h-7.08a2,2,0,0,1-2-2Z"/><path class="cls-20" d="M133.5,72a2,2,0,0,1,2-2h7.08a2,2,0,0,1,2,2V79a2,2,0,0,1-2,2h-7.08a2,2,0,0,1-2-2Z"/></g><path class="cls-21" d="M58.6,6.66v9.2"/><path class="cls-21" d="M133,6.66v9.2"/><path class="cls-22" d="M168.52,16.12c.41-2.91,3-3.75,5.53-4.11,2.9,1,6,4.8,2.68,7.14-1.35,1-4.38,1.94-5.94,1.09A5.07,5.07,0,0,1,168.52,16.12Z"/><path class="cls-22" d="M168.51,2.39C168.72.7,170,.21,171.38,0c1.5.59,3.09,2.8,1.39,4.16-.7.56-2.28,1.13-3.09.63A3,3,0,0,1,168.51,2.39Z"/><path class="cls-22" d="M20.51,47.39C20.72,45.7,22,45.21,23.38,45c1.5.59,3.09,2.8,1.39,4.16-.7.56-2.28,1.13-3.09.63A3,3,0,0,1,20.51,47.39Z"/><path class="cls-22" d="M179.51,8.36c.3-2.38,2.15-3.06,4-3.35,2.1.82,4.32,3.91,1.94,5.82-1,.79-3.18,1.58-4.31.89A4.31,4.31,0,0,1,179.51,8.36Z"/><path class="cls-22" d="M13.51,57.36c.3-2.38,2.15-3.06,4-3.35,2.1.82,4.32,3.91,1.94,5.82-1,.79-3.18,1.58-4.31.89A4.31,4.31,0,0,1,13.51,57.36Z"/><path class="cls-23" d="M186.5,36l7.69,3.58"/><path class="cls-23" d="M188.55,41.67,192.14,34"/><path class="cls-23" d="M1.5,36l7.69,3.58"/><path class="cls-23" d="M3.55,41.67,7.14,34"/><path class="cls-23" d="M9.5,77.18,17.7,75"/><path class="cls-23" d="M14.7,80.18,12.5,72"/></g></g></svg>