<svg xmlns="http://www.w3.org/2000/svg" xmlns:xlink="http://www.w3.org/1999/xlink" viewBox="0 0 193.69 88.98"><defs><style>.cls-1{fill:#5a88ff;fill-opacity:0.35;}.cls-2{fill:url(#linear-gradient);}.cls-3{fill:#12218d;}.cls-4{fill:none;stroke:#9afff9;stroke-linecap:round;stroke-width:3px;}.cls-5{fill:#82a5ff;}</style><linearGradient id="linear-gradient" x1="77.91" y1="-167.92" x2="88.26" y2="-206.55" gradientTransform="matrix(1, 0, 0, -1, 0.14, -139.16)" gradientUnits="userSpaceOnUse"><stop offset="0" stop-color="#5a88ff"/><stop offset="0.79" stop-color="#016bfe" stop-opacity="0.22"/></linearGradient></defs><g id="Layer_2" data-name="Layer 2"><g id="Layer_1-2" data-name="Layer 1"><rect class="cls-1" x="32.5" y="4.98" width="128" height="84" rx="4"/><path class="cls-2" d="M87.88,26.19c-3.87.69-8.09,4-8.37,7.53-2-2.94-8.34-3.4-12-2.1-9.78,3.46-10.2,15.55-4,22a44.84,44.84,0,0,0,12,8.36c3.7,1.87,12.92,5.48,12.94,5.45S94.67,59.71,97,56.26a44.62,44.62,0,0,0,6.28-13.19C105.49,34.42,98.09,24.37,87.88,26.19Z"/><path class="cls-3" d="M108.86,26.39c3.87.69,8.1,4,8.37,7.53,2-3,8.34-3.4,12-2.1,9.78,3.46,10.2,15.55,4,22a44.84,44.84,0,0,1-12,8.36c-3.7,1.87-12.91,5.48-12.94,5.45s-6.25-7.68-8.54-11.13A44.87,44.87,0,0,1,93.5,43.27C91.25,34.62,98.65,24.57,108.86,26.39Z"/><path class="cls-4" d="M184.5,28l7.69,3.58"/><path class="cls-4" d="M186.55,33.67,190.14,26"/><path class="cls-4" d="M1.5,30l7.69,3.58"/><path class="cls-4" d="M3.55,35.67,7.14,28"/><path class="cls-4" d="M9.5,71.18,17.7,69"/><path class="cls-4" d="M14.7,74.18,12.5,66"/><path class="cls-5" d="M19.51,53.39C19.72,51.7,21,51.21,22.38,51c1.5.59,3.09,2.8,1.39,4.16-.7.56-2.28,1.13-3.09.63A3,3,0,0,1,19.51,53.39Z"/><path class="cls-5" d="M176.51,2.39C176.72.7,178,.21,179.38,0c1.5.59,3.09,2.8,1.39,4.16-.7.56-2.28,1.13-3.09.63A3,3,0,0,1,176.51,2.39Z"/><path class="cls-5" d="M169.51,12.36c.3-2.38,2.15-3.06,4-3.35,2.1.82,4.32,3.91,1.94,5.82-1,.79-3.18,1.58-4.31.89A4.31,4.31,0,0,1,169.51,12.36Z"/></g></g></svg>