<svg xmlns="http://www.w3.org/2000/svg" xmlns:xlink="http://www.w3.org/1999/xlink" viewBox="0 0 370.44 363.38"><defs><style>.cls-1{fill:#e8f5f4;}.cls-2{fill:url(#linear-gradient);}.cls-3{fill:url(#linear-gradient-2);}.cls-4{fill:none;stroke-linecap:round;stroke-linejoin:round;stroke-width:2.83px;stroke:url(#linear-gradient-3);}.cls-5{fill:url(#linear-gradient-4);}</style><linearGradient id="linear-gradient" x1="-180.77" y1="-1964.57" x2="-252.45" y2="-1892.89" gradientTransform="matrix(1, 0, 0, -1, 379.63, -1708.39)" gradientUnits="userSpaceOnUse"><stop offset="0" stop-color="#2d487a"/><stop offset="0.3" stop-color="#2f497b" stop-opacity="0.7"/><stop offset="0.45" stop-color="#354e7e" stop-opacity="0.55"/><stop offset="0.56" stop-color="#405583" stop-opacity="0.44"/><stop offset="0.66" stop-color="#4e618c" stop-opacity="0.34"/><stop offset="0.75" stop-color="#617198" stop-opacity="0.25"/><stop offset="0.83" stop-color="#7888a8" stop-opacity="0.17"/><stop offset="0.9" stop-color="#97a7be" stop-opacity="0.1"/><stop offset="0.97" stop-color="#c1d1da" stop-opacity="0.03"/><stop offset="1" stop-color="#dbeded" stop-opacity="0"/></linearGradient><linearGradient id="linear-gradient-2" x1="-193.26" y1="-1996.77" x2="-126.75" y2="-1996.77" gradientTransform="matrix(1, 0, 0, -1, 379.63, -1708.39)" gradientUnits="userSpaceOnUse"><stop offset="0" stop-color="#2d487a"/><stop offset="0.15" stop-color="#2d487a"/></linearGradient><linearGradient id="linear-gradient-3" x1="-226.62" y1="-1794.28" x2="-137.86" y2="-1794.28" gradientTransform="matrix(1, 0, 0, -1, 379.63, -1708.39)" gradientUnits="userSpaceOnUse"><stop offset="0" stop-color="#88d0c9"/><stop offset="0.33" stop-color="#79b4b8"/><stop offset="0.51" stop-color="#73aab1"/><stop offset="0.81" stop-color="#81c2c0"/><stop offset="1" stop-color="#88d0c9"/></linearGradient><linearGradient id="linear-gradient-4" x1="-128.6" y1="-1895.7" x2="-233.26" y2="-2000.36" gradientTransform="matrix(1, 0, 0, -1, 379.63, -1708.39)" gradientUnits="userSpaceOnUse"><stop offset="0" stop-color="#fff" stop-opacity="0"/><stop offset="0.01" stop-color="#f6f7fb" stop-opacity="0.01"/><stop offset="0.06" stop-color="#d0daed" stop-opacity="0.06"/><stop offset="0.12" stop-color="#b0c4e1" stop-opacity="0.12"/><stop offset="0.19" stop-color="#97b2d8" stop-opacity="0.18"/><stop offset="0.26" stop-color="#83a5d1" stop-opacity="0.26"/><stop offset="0.35" stop-color="#749ccc" stop-opacity="0.34"/><stop offset="0.45" stop-color="#6996c8" stop-opacity="0.45"/><stop offset="0.6" stop-color="#6393c6" stop-opacity="0.6"/><stop offset="1" stop-color="#6192c6"/></linearGradient></defs><g id="Layer_2" data-name="Layer 2"><g id="Layer_1-2" data-name="Layer 1"><ellipse class="cls-1" cx="185.22" cy="181.69" rx="185.22" ry="181.69"/><path class="cls-2" d="M100.94,210.74,151.22,163h.21l16.67,17.41.1,0c7.58.46,11.09.59,17.62,2,0,0,9.42,2.84,13.38,6.73l26.85,26.34a9.44,9.44,0,0,1,0,13.55h0a10.49,10.49,0,0,1-14.63,0l-26.77-26.26a14,14,0,0,0-19.59,0L120.85,246.1a24.68,24.68,0,0,1-2.83-9.89l0-.5a21.83,21.83,0,0,0-6.28-13.87l-10.77-10.9Z"/><path class="cls-3" d="M189.22,316l-.06-.06h0c-4.28-4.5-3.58-11.94,1.78-16.21a11.82,11.82,0,0,1,10.16-2.23,11.6,11.6,0,0,1,4.38-11,11.82,11.82,0,0,1,10.16-2.23A11.6,11.6,0,0,1,220,273.2,11.82,11.82,0,0,1,230.18,271a11.6,11.6,0,0,1,4.38-11.05,11.79,11.79,0,0,1,15.45.68h0l.07.09.09.08h0a11.24,11.24,0,0,1-.49,15.17,12.09,12.09,0,0,1-11.57,3.45,11.27,11.27,0,0,1-3,9.77,12.09,12.09,0,0,1-11.57,3.45,11.27,11.27,0,0,1-3,9.77,12.09,12.09,0,0,1-11.57,3.45,11.27,11.27,0,0,1-3,9.77c-4.75,4.91-12.37,5-16.61.51h0A.07.07,0,0,0,189.22,316Z"/><polyline class="cls-4" points="154.43 90.05 183.98 130.26 240.36 41.52"/><path class="cls-5" d="M278.32,214.59,228,166.8a.15.15,0,0,0-.21,0l-16.67,17.41a.13.13,0,0,1-.1,0A102.58,102.58,0,0,0,194.64,186a19.94,19.94,0,0,1,4.56,3.12l26.85,26.34a9.44,9.44,0,0,1,0,13.55h0a10.49,10.49,0,0,1-14.63,0l-26.77-26.26a14,14,0,0,0-19.52-.05l-1.49,1.45-42.78,42a2.14,2.14,0,0,1-.1-.22c-5.21,5.35-5.94,13.88-1,19.46a14.51,14.51,0,0,0,14.35,4.42A13.67,13.67,0,0,0,137,282.19a14.51,14.51,0,0,0,14.35,4.42,13.67,13.67,0,0,0,2.92,12.44,14.51,14.51,0,0,0,14.35,4.42,13.67,13.67,0,0,0,2.92,12.44,14.55,14.55,0,0,0,19.75,1.81,9.87,9.87,0,0,1-2-1.64h0l-.05-.06-.06-.06h0c-4.28-4.5-3.58-11.94,1.78-16.21a11.82,11.82,0,0,1,10.16-2.23,11.6,11.6,0,0,1,4.38-11,11.82,11.82,0,0,1,10.16-2.23,11.6,11.6,0,0,1,4.38-11.05A11.82,11.82,0,0,1,230.21,271a11.6,11.6,0,0,1,4.38-11,11.77,11.77,0,0,1,15.13.42l4.34-4.4a25,25,0,0,0,7.19-15.87l0-.5a21.83,21.83,0,0,1,6.28-13.87l10.77-10.9A.14.14,0,0,0,278.32,214.59Z"/></g></g></svg>