<svg xmlns="http://www.w3.org/2000/svg" xmlns:xlink="http://www.w3.org/1999/xlink" viewBox="0 0 370.44 468.83"><defs><style>.cls-1,.cls-5{fill:none;}.cls-2{fill:#e8f5f4;}.cls-3{clip-path:url(#clip-path);}.cls-4{fill:#4d87c6;}.cls-5{stroke-linecap:round;stroke-linejoin:round;stroke-width:2.83px;stroke:url(#linear-gradient);}.cls-6{fill:url(#linear-gradient-2);}</style><clipPath id="clip-path"><ellipse class="cls-1" cx="185.22" cy="181.69" rx="185.22" ry="181.69"/></clipPath><linearGradient id="linear-gradient" x1="199.38" y1="-1890.02" x2="348.89" y2="-1890.02" gradientTransform="matrix(1.04, 0, 0, -1, -38.37, -1708.31)" gradientUnits="userSpaceOnUse"><stop offset="0" stop-color="#88d0c9" stop-opacity="0"/><stop offset="0.22" stop-color="#88d0c9"/><stop offset="0.25" stop-color="#84c7c4"/><stop offset="0.35" stop-color="#7bb6b9"/><stop offset="0.43" stop-color="#75adb3"/><stop offset="0.51" stop-color="#73aab1"/><stop offset="0.61" stop-color="#7ab6b9"/><stop offset="0.74" stop-color="#88d0c9"/><stop offset="1" stop-color="#88d0c9" stop-opacity="0"/></linearGradient><linearGradient id="linear-gradient-2" x1="1204.84" y1="-1936.25" x2="1204.84" y2="-2071.41" gradientTransform="translate(1304.36 -1708.37) rotate(180)" gradientUnits="userSpaceOnUse"><stop offset="0" stop-color="#4d87c6" stop-opacity="0.8"/><stop offset="1" stop-color="#4d87c6" stop-opacity="0"/></linearGradient></defs><g id="Layer_2" data-name="Layer 2"><g id="Layer_1-2" data-name="Layer 1"><ellipse id="SVGID" class="cls-2" cx="185.22" cy="181.69" rx="185.22" ry="181.69"/><g class="cls-3"><path class="cls-2" d="M96.11,227.88c-43.1,0-78,34.28-78,76.56V468.83H174.16V304.43C174.15,262.15,139.21,227.88,96.11,227.88Z"/></g><ellipse class="cls-4" cx="96.04" cy="154.94" rx="69.07" ry="67.76"/><path class="cls-5" d="M171.25,192.75l6.74.31s11.75,1.57,14.24-22.67c2.62-25.45,26.19-38.55,31.47,2.18,0,0,.48,9.22,3.46,27.39,2.47,15.08,19.1,30,31.51-2.43,0,0,17-47.18,33-10.93,0,0,12.54,30.27,26.83,3.6l6-14.72"/><path class="cls-6" d="M96,227.88c43.1,0,78,34.28,78,76.56V363A185.59,185.59,0,0,1,25,272.85,78.14,78.14,0,0,1,96,227.88Z"/></g></g></svg>