<svg xmlns="http://www.w3.org/2000/svg" xmlns:xlink="http://www.w3.org/1999/xlink" viewBox="0 0 270 248.09"><defs><style>.cls-1{fill:none;}.cls-2{clip-path:url(#clip-path);}.cls-3{fill:url(#linear-gradient);}.cls-4{fill:url(#linear-gradient-2);}.cls-5,.cls-6{opacity:0.86;}.cls-6{isolation:isolate;fill:url(#linear-gradient-3);}</style><clipPath id="clip-path" transform="translate(0 0)"><rect class="cls-1" width="270" height="248.09"/></clipPath><linearGradient id="linear-gradient" x1="92.98" y1="-126.1" x2="92.98" y2="-206.01" gradientTransform="matrix(1, 0, 0, -1, 0.14, 42.08)" gradientUnits="userSpaceOnUse"><stop offset="0.03" stop-color="#253a84"/><stop offset="0.61" stop-color="#5928e4"/></linearGradient><linearGradient id="linear-gradient-2" x1="127.35" y1="42.08" x2="127.35" y2="-126.95" gradientTransform="matrix(1, 0, 0, -1, 0.14, 42.08)" gradientUnits="userSpaceOnUse"><stop offset="0" stop-color="#498df7"/><stop offset="1" stop-color="#1b2467"/></linearGradient><linearGradient id="linear-gradient-3" x1="187.32" y1="-44.53" x2="187.32" y2="-126.75" gradientTransform="matrix(1, 0, 0, -1, 0.14, 42.08)" gradientUnits="userSpaceOnUse"><stop offset="0.38" stop-color="#9afff9"/><stop offset="1" stop-color="#3c6ecd"/></linearGradient></defs><g id="Layer_2" data-name="Layer 2"><g id="Layer_1-2" data-name="Layer 1"><g class="cls-2"><path class="cls-3" d="M175.92,168.19a26.76,26.76,0,0,0-24.07,15.42c-50.73,107-98.29,59.82-111.13,8.44a31.23,31.23,0,0,0-30.41-23.53Z" transform="translate(0 0)"/><path class="cls-4" d="M255,168.49s-69.87-5.26-79.58-78.58C156.81-50.55,73.71-5.36,64.46,82.39,55.66,166,0,168.49,0,168.49Z" transform="translate(0 0)"/><g class="cls-5"><g class="cls-5"><path class="cls-6" d="M270,168.49c-14.29,0-25.18-5.1-30.4-23.45-16.47-57.94-77.88-99.1-111.08,8.41-3,9.86-13.3,15.36-23.61,15.38Z" transform="translate(0 0)"/></g></g></g></g></g></svg>