<svg xmlns="http://www.w3.org/2000/svg" xmlns:xlink="http://www.w3.org/1999/xlink" viewBox="0 0 144.34 39.96"><defs><style>.cls-1,.cls-11{fill:#fff;}.cls-2{fill:none;}.cls-3{clip-path:url(#clip-path);}.cls-4{fill:url(#linear-gradient);}.cls-5{fill:url(#linear-gradient-2);}.cls-6,.cls-7{opacity:0.86;}.cls-7{isolation:isolate;fill:url(#linear-gradient-3);}.cls-8{mask:url(#mask);}.cls-9{stroke:#000;}.cls-11,.cls-9{stroke-width:10px;}.cls-10{mask:url(#mask-2);}.cls-11{stroke:#fff;}</style><clipPath id="clip-path" transform="translate(5 0)"><rect class="cls-2" width="139.34" height="39.96"/></clipPath><linearGradient id="linear-gradient" x1="110.71" y1="-470.91" x2="110.71" y2="-483.72" gradientTransform="matrix(1, 0, 0, -1, 0.14, -443.76)" gradientUnits="userSpaceOnUse"><stop offset="0.03" stop-color="#253a84"/><stop offset="0.61" stop-color="#5928e4"/></linearGradient><linearGradient id="linear-gradient-2" x1="116.25" y1="-443.76" x2="116.25" y2="-470.98" gradientTransform="matrix(1, 0, 0, -1, 0.14, -443.76)" gradientUnits="userSpaceOnUse"><stop offset="0" stop-color="#498df7"/><stop offset="1" stop-color="#1b2467"/></linearGradient><linearGradient id="linear-gradient-3" x1="125.91" y1="-457.7" x2="125.91" y2="-470.94" gradientTransform="matrix(1, 0, 0, -1, 0.14, -443.76)" gradientUnits="userSpaceOnUse"><stop offset="0.38" stop-color="#9afff9"/><stop offset="1" stop-color="#3c6ecd"/></linearGradient><mask id="mask" x="0" y="9" width="56" height="24" maskUnits="userSpaceOnUse"><g transform="translate(5 0)"><g id="path-6-inside-1"><path class="cls-1" d="M7.94,27.8a.41.41,0,0,1-.31-.12.4.4,0,0,1-.12-.31V21.54q0-3.72-3.73-3.72H.43a.4.4,0,0,1-.31-.12A.41.41,0,0,1,0,17.39v-.27a.41.41,0,0,1,.12-.31.4.4,0,0,1,.31-.12H3.89a4.9,4.9,0,0,1,3.63,1.22,4.86,4.86,0,0,1,1.19,3.53v5.94a.41.41,0,0,1-.12.31.4.4,0,0,1-.31.12H7.94Zm-7.51,0a.4.4,0,0,1-.31-.12A.4.4,0,0,1,0,27.37V20.55a.4.4,0,0,1,.12-.31.4.4,0,0,1,.31-.12H.76a.41.41,0,0,1,.31.12.4.4,0,0,1,.12.31v6.82a.4.4,0,0,1-.12.31.41.41,0,0,1-.31.12Zm11.36,0a.41.41,0,0,1-.43-.43V27.1a.41.41,0,0,1,.12-.31.39.39,0,0,1,.31-.11h5.87V21.54c0-2.47-1.24-3.72-3.73-3.72H12a.41.41,0,0,1-.31-.11.41.41,0,0,1-.12-.31v-.27a.42.42,0,0,1,.12-.32A.45.45,0,0,1,12,16.7h2a4.83,4.83,0,0,1,3.63,1.23,4.81,4.81,0,0,1,1.2,3.52v5.23h.74a.41.41,0,0,1,.31.12.4.4,0,0,1,.12.31v.27a.41.41,0,0,1-.43.43H11.79Zm10.89,0a.41.41,0,0,1-.43-.43V17.12a.41.41,0,0,1,.12-.31.4.4,0,0,1,.31-.12H23a.41.41,0,0,1,.43.43V27.37a.4.4,0,0,1-.12.31.41.41,0,0,1-.31.12Zm8.66.2a4.7,4.7,0,0,1-3.6-1.21,5,5,0,0,1-1.12-3.54V17.12a.45.45,0,0,1,.11-.31.42.42,0,0,1,.32-.12h.33a.41.41,0,0,1,.43.43v6a3.94,3.94,0,0,0,.86,2.75,3.43,3.43,0,0,0,2.67,1A3.56,3.56,0,0,0,34,26a3.83,3.83,0,0,0,.89-2.65v-2.2a4,4,0,0,0-.78-2.59,2.55,2.55,0,0,0-2-.83,3.09,3.09,0,0,0-.85.13,2.76,2.76,0,0,0-.81.37.34.34,0,0,1-.42,0,.28.28,0,0,1-.11-.22v-.35a.85.85,0,0,1,0-.27.52.52,0,0,1,.16-.18,3.64,3.64,0,0,1,.92-.43,4,4,0,0,1,1.17-.15A3.67,3.67,0,0,1,35,17.69a5,5,0,0,1,1.06,3.36c0,.13,0,.53,0,1.19s0,1.08,0,1.21a4.91,4.91,0,0,1-1.15,3.44A4.77,4.77,0,0,1,31.34,28Zm9.84-11.3a6.81,6.81,0,0,1,2.86.49,3,3,0,0,1,1.5,1.61,8,8,0,0,1,.46,3,5.73,5.73,0,0,1-1.14,3.84,7.11,7.11,0,0,1-3.06,2L41,28a.39.39,0,0,1-.16,0,.27.27,0,0,1-.31-.31v-.49c0-.21.13-.38.41-.48l.8-.31A5.16,5.16,0,0,0,44,24.77a5,5,0,0,0,.79-3.07,6.11,6.11,0,0,0-.35-2.29,2.27,2.27,0,0,0-1.17-1.21,5.37,5.37,0,0,0-2.21-.37h-.72l-1.53,0a.41.41,0,0,1-.31-.11.38.38,0,0,1-.12-.3v-3a.4.4,0,0,1,.12-.31.41.41,0,0,1,.31-.12h.33a.42.42,0,0,1,.32.12.43.43,0,0,1,.11.31V16.7Z"/></g></g></mask><mask id="mask-2" x="54" y="9" width="45" height="27" maskUnits="userSpaceOnUse"><g transform="translate(5 0)"><g id="path-7-inside-2"><path class="cls-1" d="M56.74,16.62a6.73,6.73,0,0,1,2.81.48A2.88,2.88,0,0,1,61,18.66a7.79,7.79,0,0,1,.45,2.94,5.43,5.43,0,0,1-1.13,3.72,7,7,0,0,1-3,1.95l-.81.28-.15,0c-.21,0-.31-.1-.31-.3v-.48c0-.21.14-.37.41-.47l.78-.3a5,5,0,0,0,2.27-1.57,4.85,4.85,0,0,0,.77-3A5.81,5.81,0,0,0,60,19.25a2.18,2.18,0,0,0-1.15-1.18,5.42,5.42,0,0,0-2.18-.35h-.71l-1.51,0a.41.41,0,0,1-.3-.11A.36.36,0,0,1,54,17.3V14.41a.39.39,0,0,1,.42-.41h.33a.45.45,0,0,1,.31.11.44.44,0,0,1,.11.3v2.21Zm7.94,10.77a.37.37,0,0,1-.3-.11.39.39,0,0,1-.12-.3V17a.41.41,0,0,1,.42-.42H65a.41.41,0,0,1,.31.12.41.41,0,0,1,.11.3V27a.42.42,0,0,1-.11.3.41.41,0,0,1-.31.11Zm7.74.16-.15,0c-.21,0-.31-.1-.31-.3v-.48c0-.21.14-.37.4-.47l.79-.3a5,5,0,0,0,2.26-1.57,4.78,4.78,0,0,0,.78-3,5.81,5.81,0,0,0-.34-2.22,2.21,2.21,0,0,0-1.15-1.18,5.51,5.51,0,0,0-2.19-.35H69.08a.39.39,0,0,1-.3-.12.38.38,0,0,1-.12-.3V17a.38.38,0,0,1,.12-.3.39.39,0,0,1,.3-.12h3.53a6.82,6.82,0,0,1,2.82.48,2.9,2.9,0,0,1,1.48,1.56,7.84,7.84,0,0,1,.45,2.95,5.44,5.44,0,0,1-1.13,3.72,7,7,0,0,1-3,1.94ZM69.09,31a.45.45,0,0,1-.31-.11.44.44,0,0,1-.11-.3V20.35a.44.44,0,0,1,.11-.3.45.45,0,0,1,.31-.11h.33a.39.39,0,0,1,.42.41V30.59a.39.39,0,0,1-.42.41Zm19.15-3.61a.41.41,0,0,1-.31-.11.42.42,0,0,1-.11-.3V21.31q0-3.6-3.68-3.6H80.83a.41.41,0,0,1-.42-.42V17a.41.41,0,0,1,.42-.42h3.41a4.83,4.83,0,0,1,3.58,1.19A4.61,4.61,0,0,1,89,21.22V27a.41.41,0,0,1-.42.42h-.34Zm-7.41,0a.41.41,0,0,1-.31-.11.39.39,0,0,1-.11-.3V20.35a.4.4,0,0,1,.11-.3.45.45,0,0,1,.31-.11h.32a.43.43,0,0,1,.31.11.41.41,0,0,1,.12.3V27a.4.4,0,0,1-.43.41Z"/></g></g></mask></defs><g id="Layer_2" data-name="Layer 2"><g id="Layer_1-2" data-name="Layer 1"><g class="cls-3"><path class="cls-4" d="M124.17,27.15a4.33,4.33,0,0,0-3.87,2.48c-8.16,17.14-15.82,9.58-17.89,1.35a5,5,0,0,0-4.89-3.77Z" transform="translate(5 0)"/><path class="cls-5" d="M136.92,27.13s-11.25-.85-12.81-12.65c-3-22.62-16.38-15.34-17.87-1.21-1.41,13.45-10.38,14-10.38,14Z" transform="translate(5 0)"/><g class="cls-6"><g class="cls-6"><path class="cls-7" d="M139.34,27.13c-2.3,0-4.05-.82-4.89-3.78C131.79,14,121.9,7.4,116.56,24.71a3.84,3.84,0,0,1-3.8,2.47Z" transform="translate(5 0)"/></g></g><g class="cls-8"><path class="cls-9" d="M7.94,27.8a.41.41,0,0,1-.31-.12.4.4,0,0,1-.12-.31V21.54q0-3.72-3.73-3.72H.43a.4.4,0,0,1-.31-.12A.41.41,0,0,1,0,17.39v-.27a.41.41,0,0,1,.12-.31.4.4,0,0,1,.31-.12H3.89a4.9,4.9,0,0,1,3.63,1.22,4.86,4.86,0,0,1,1.19,3.53v5.94a.41.41,0,0,1-.12.31.4.4,0,0,1-.31.12H7.94Zm-7.51,0a.4.4,0,0,1-.31-.12A.4.4,0,0,1,0,27.37V20.55a.4.4,0,0,1,.12-.31.4.4,0,0,1,.31-.12H.76a.41.41,0,0,1,.31.12.4.4,0,0,1,.12.31v6.82a.4.4,0,0,1-.12.31.41.41,0,0,1-.31.12Zm11.36,0a.41.41,0,0,1-.43-.43V27.1a.41.41,0,0,1,.12-.31.39.39,0,0,1,.31-.11h5.87V21.54c0-2.47-1.24-3.72-3.73-3.72H12a.41.41,0,0,1-.31-.11.41.41,0,0,1-.12-.31v-.27a.42.42,0,0,1,.12-.32A.45.45,0,0,1,12,16.7h2a4.83,4.83,0,0,1,3.63,1.23,4.81,4.81,0,0,1,1.2,3.52v5.23h.74a.41.41,0,0,1,.31.12.4.4,0,0,1,.12.31v.27a.41.41,0,0,1-.43.43H11.79Zm10.89,0a.41.41,0,0,1-.43-.43V17.12a.41.41,0,0,1,.12-.31.4.4,0,0,1,.31-.12H23a.41.41,0,0,1,.43.43V27.37a.4.4,0,0,1-.12.31.41.41,0,0,1-.31.12Zm8.66.2a4.7,4.7,0,0,1-3.6-1.21,5,5,0,0,1-1.12-3.54V17.12a.45.45,0,0,1,.11-.31.42.42,0,0,1,.32-.12h.33a.41.41,0,0,1,.43.43v6a3.94,3.94,0,0,0,.86,2.75,3.43,3.43,0,0,0,2.67,1A3.56,3.56,0,0,0,34,26a3.83,3.83,0,0,0,.89-2.65v-2.2a4,4,0,0,0-.78-2.59,2.55,2.55,0,0,0-2-.83,3.09,3.09,0,0,0-.85.13,2.76,2.76,0,0,0-.81.37.34.34,0,0,1-.42,0,.28.28,0,0,1-.11-.22v-.35a.85.85,0,0,1,0-.27.52.52,0,0,1,.16-.18,3.64,3.64,0,0,1,.92-.43,4,4,0,0,1,1.17-.15A3.67,3.67,0,0,1,35,17.69a5,5,0,0,1,1.06,3.36c0,.13,0,.53,0,1.19s0,1.08,0,1.21a4.91,4.91,0,0,1-1.15,3.44A4.77,4.77,0,0,1,31.34,28Zm9.84-11.3a6.81,6.81,0,0,1,2.86.49,3,3,0,0,1,1.5,1.61,8,8,0,0,1,.46,3,5.73,5.73,0,0,1-1.14,3.84,7.11,7.11,0,0,1-3.06,2L41,28a.39.39,0,0,1-.16,0,.27.27,0,0,1-.31-.31v-.49c0-.21.13-.38.41-.48l.8-.31A5.16,5.16,0,0,0,44,24.77a5,5,0,0,0,.79-3.07,6.11,6.11,0,0,0-.35-2.29,2.27,2.27,0,0,0-1.17-1.21,5.37,5.37,0,0,0-2.21-.37h-.72l-1.53,0a.41.41,0,0,1-.31-.11.38.38,0,0,1-.12-.3v-3a.4.4,0,0,1,.12-.31.41.41,0,0,1,.31-.12h.33a.42.42,0,0,1,.32.12.43.43,0,0,1,.11.31V16.7Z" transform="translate(5 0)"/></g><g class="cls-10"><path class="cls-11" d="M56.74,16.62a6.73,6.73,0,0,1,2.81.48A2.88,2.88,0,0,1,61,18.66a7.79,7.79,0,0,1,.45,2.94,5.43,5.43,0,0,1-1.13,3.72,7,7,0,0,1-3,1.95l-.81.28-.15,0c-.21,0-.31-.1-.31-.3v-.48c0-.21.14-.37.41-.47l.78-.3a5,5,0,0,0,2.27-1.57,4.85,4.85,0,0,0,.77-3A5.81,5.81,0,0,0,60,19.25a2.18,2.18,0,0,0-1.15-1.18,5.42,5.42,0,0,0-2.18-.35h-.71l-1.51,0a.41.41,0,0,1-.3-.11A.36.36,0,0,1,54,17.3V14.41a.39.39,0,0,1,.42-.41h.33a.45.45,0,0,1,.31.11.44.44,0,0,1,.11.3v2.21Zm7.94,10.77a.37.37,0,0,1-.3-.11.39.39,0,0,1-.12-.3V17a.41.41,0,0,1,.42-.42H65a.41.41,0,0,1,.31.12.41.41,0,0,1,.11.3V27a.42.42,0,0,1-.11.3.41.41,0,0,1-.31.11Zm7.74.16-.15,0c-.21,0-.31-.1-.31-.3v-.48c0-.21.14-.37.4-.47l.79-.3a5,5,0,0,0,2.26-1.57,4.78,4.78,0,0,0,.78-3,5.81,5.81,0,0,0-.34-2.22,2.21,2.21,0,0,0-1.15-1.18,5.51,5.51,0,0,0-2.19-.35H69.08a.39.39,0,0,1-.3-.12.38.38,0,0,1-.12-.3V17a.38.38,0,0,1,.12-.3.39.39,0,0,1,.3-.12h3.53a6.82,6.82,0,0,1,2.82.48,2.9,2.9,0,0,1,1.48,1.56,7.84,7.84,0,0,1,.45,2.95,5.44,5.44,0,0,1-1.13,3.72,7,7,0,0,1-3,1.94ZM69.09,31a.45.45,0,0,1-.31-.11.44.44,0,0,1-.11-.3V20.35a.44.44,0,0,1,.11-.3.45.45,0,0,1,.31-.11h.33a.39.39,0,0,1,.42.41V30.59a.39.39,0,0,1-.42.41Zm19.15-3.61a.41.41,0,0,1-.31-.11.42.42,0,0,1-.11-.3V21.31q0-3.6-3.68-3.6H80.83a.41.41,0,0,1-.42-.42V17a.41.41,0,0,1,.42-.42h3.41a4.83,4.83,0,0,1,3.58,1.19A4.61,4.61,0,0,1,89,21.22V27a.41.41,0,0,1-.42.42h-.34Zm-7.41,0a.41.41,0,0,1-.31-.11.39.39,0,0,1-.11-.3V20.35a.4.4,0,0,1,.11-.3.45.45,0,0,1,.31-.11h.32a.43.43,0,0,1,.31.11.41.41,0,0,1,.12.3V27a.4.4,0,0,1-.43.41Z" transform="translate(5 0)"/></g></g></g></g></svg>