<svg width="140" height="40" viewBox="0 0 140 40" fill="none" xmlns="http://www.w3.org/2000/svg">
<path d="M124.173 27.1547C122.512 27.1574 121.016 28.127 120.3 29.626C112.135 46.7745 104.48 39.2118 102.414 30.9792C101.855 28.7482 99.8185 27.2033 97.52 27.2087L124.173 27.1547Z" fill="url(#paint0_linear)"/>
<path d="M136.919 27.1304C136.919 27.1304 125.669 26.2823 124.106 14.4763C121.113 -8.13886 107.732 -0.862454 106.244 13.2663C104.826 26.7225 95.8643 27.2168 95.8643 27.2168L136.919 27.1304Z" fill="url(#paint1_linear)"/>
<g opacity="0.86">
<g opacity="0.86">
<path opacity="0.86" d="M139.339 27.1304C137.038 27.1358 135.285 26.3093 134.445 23.3544C131.792 14.0253 121.904 7.3971 116.559 24.7076C116.07 26.2958 114.417 27.1817 112.756 27.1844L139.339 27.1304Z" fill="url(#paint2_linear)"/>
</g>
</g>
<path d="M7.94094 27.801C7.80948 27.801 7.70724 27.7622 7.62934 27.6846C7.55144 27.6069 7.51249 27.505 7.51249 27.374V21.5362C7.51249 19.0614 6.27095 17.8191 3.78302 17.8191H0.428445C0.296989 17.8191 0.194745 17.7802 0.116845 17.7026C0.0389453 17.625 0 17.5231 0 17.392V17.1203C0 16.9893 0.0389453 16.8873 0.116845 16.8097C0.194745 16.7321 0.296989 16.6932 0.428445 16.6932H3.88527C5.51143 16.6932 6.72375 17.1009 7.51736 17.9113C8.31097 18.7217 8.71021 19.9009 8.71021 21.444V27.3789C8.71021 27.5099 8.67125 27.6118 8.59335 27.6894C8.51545 27.7671 8.41321 27.8059 8.28175 27.8059H7.94094V27.801ZM0.428445 27.801C0.296989 27.801 0.194745 27.7622 0.116845 27.6846C0.0389453 27.6069 0 27.505 0 27.374V20.5463C0 20.4153 0.0389453 20.3133 0.116845 20.2357C0.194745 20.1581 0.296989 20.1192 0.428445 20.1192H0.759525C0.890981 20.1192 0.993225 20.1581 1.07112 20.2357C1.14902 20.3133 1.18798 20.4153 1.18798 20.5463V27.374C1.18798 27.505 1.14902 27.6069 1.07112 27.6846C0.993225 27.7622 0.890981 27.801 0.759525 27.801H0.428445ZM11.7873 27.801C11.6558 27.801 11.5536 27.7622 11.4757 27.6846C11.3978 27.6069 11.3588 27.505 11.3588 27.374V27.1023C11.3588 26.9712 11.3978 26.8693 11.4757 26.7917C11.5536 26.714 11.6558 26.6752 11.7873 26.6752H17.6638V21.5411C17.6638 19.0662 16.4223 17.8239 13.9344 17.8239H11.982C11.8506 17.8239 11.7483 17.7851 11.6704 17.7075C11.5925 17.6298 11.5536 17.5279 11.5536 17.3969V17.1251C11.5536 16.9941 11.5925 16.8922 11.6704 16.8146C11.7483 16.7369 11.8506 16.6981 11.982 16.6981H14.0318C15.6579 16.6981 16.8702 17.1057 17.6638 17.9258C18.4575 18.7411 18.8567 19.9154 18.8567 21.4489V26.6801H19.5967C19.7282 26.6801 19.8304 26.7189 19.9083 26.7965C19.9862 26.8742 20.0252 26.9761 20.0252 27.1071V27.3789C20.0252 27.5099 19.9862 27.6118 19.9083 27.6894C19.8304 27.7671 19.7282 27.8059 19.5967 27.8059H11.7873V27.801ZM22.6787 27.801C22.5472 27.801 22.445 27.7622 22.3671 27.6846C22.2892 27.6069 22.2502 27.505 22.2502 27.374V17.1203C22.2502 16.9893 22.2892 16.8873 22.3671 16.8097C22.445 16.7321 22.5472 16.6932 22.6787 16.6932H23.0097C23.1412 16.6932 23.2434 16.7321 23.3213 16.8097C23.3992 16.8873 23.4382 16.9893 23.4382 17.1203V27.374C23.4382 27.505 23.3992 27.6069 23.3213 27.6846C23.2434 27.7622 23.1412 27.801 23.0097 27.801H22.6787ZM31.3402 28C29.6897 28 28.4871 27.5972 27.7373 26.7917C26.9875 25.9861 26.6175 24.8069 26.6175 23.2492V17.1203C26.6175 16.9893 26.6564 16.8873 26.7343 16.8097C26.8122 16.7321 26.9145 16.6932 27.0459 16.6932H27.377C27.5085 16.6932 27.6107 16.7321 27.6886 16.8097C27.7665 16.8873 27.8055 16.9893 27.8055 17.1203V23.1522C27.8055 24.3459 28.0927 25.2631 28.6721 25.9036C29.2515 26.5442 30.1376 26.8645 31.3353 26.8645C32.533 26.8645 33.4143 26.5782 33.9791 26.0007C34.5438 25.4232 34.8408 24.54 34.8652 23.3463V22.6863V21.148C34.8408 19.9785 34.5779 19.1196 34.0862 18.5615C33.5896 18.0035 32.9225 17.7269 32.0754 17.7269C31.8271 17.7269 31.5447 17.7705 31.2282 17.8627C30.9069 17.9549 30.6391 18.0763 30.42 18.2315C30.3567 18.2704 30.2885 18.2898 30.2252 18.2898C30.1473 18.2898 30.0743 18.2607 30.0013 18.2024C29.9282 18.1442 29.8942 18.0714 29.8942 17.9792V17.7269V17.6298C29.8942 17.5133 29.9088 17.4211 29.9331 17.3581C29.9574 17.295 30.011 17.2367 30.0889 17.1834C30.3859 16.9893 30.6975 16.8437 31.014 16.7466C31.3304 16.6496 31.7199 16.601 32.1776 16.601C33.3899 16.601 34.3296 16.965 34.9966 17.688C35.6685 18.4159 36.0191 19.5369 36.058 21.051C36.0726 21.182 36.0775 21.575 36.0775 22.2399C36.0775 22.9144 36.0726 23.3172 36.058 23.4482C36.0191 25.0059 35.6393 26.1511 34.9138 26.8936C34.1884 27.636 33.0102 28 31.3402 28ZM41.1799 16.6981C42.3923 16.6981 43.3417 16.8631 44.0379 17.1931C44.7341 17.5231 45.2356 18.0568 45.5424 18.7993C45.8491 19.5369 46 20.5511 46 21.8322C46 23.5064 45.6202 24.7827 44.8559 25.6659C44.0963 26.549 43.0787 27.2139 41.8031 27.67L40.9852 27.9612C40.9462 27.9757 40.8927 27.9806 40.8294 27.9806C40.62 27.9806 40.5178 27.8787 40.5178 27.67V27.1847C40.5178 26.9664 40.6541 26.8014 40.9268 26.6995L41.7252 26.3889C42.7282 26.0007 43.4926 25.462 44.0184 24.773C44.5443 24.0839 44.8072 23.06 44.8072 21.7012C44.8072 20.7307 44.6903 19.964 44.4566 19.4059C44.2229 18.8478 43.8334 18.4451 43.293 18.1976C42.7525 17.9501 42.0125 17.8288 41.0777 17.8288H40.4156H40.3571L38.8332 17.8094C38.7017 17.8094 38.5995 17.7754 38.5216 17.7026C38.4437 17.6298 38.4048 17.5328 38.4048 17.4017V14.427C38.4048 14.296 38.4437 14.1941 38.5216 14.1165C38.5995 14.0388 38.7017 14 38.8332 14H39.1643C39.2957 14 39.398 14.0388 39.4759 14.1165C39.5538 14.1941 39.5927 14.296 39.5927 14.427V16.7029H41.1799V16.6981Z" fill="black"/>
<path d="M56.7366 16.6183C57.9321 16.6183 58.8683 16.7784 59.5549 17.0986C60.2414 17.4188 60.7359 17.9368 61.0384 18.6573C61.3409 19.3731 61.4897 20.3573 61.4897 21.6006C61.4897 23.2252 61.1152 24.4637 60.3615 25.3208C59.6125 26.1778 58.6091 26.823 57.3512 27.2656L56.5446 27.5482C56.5062 27.5623 56.4534 27.567 56.391 27.567C56.1845 27.567 56.0837 27.4681 56.0837 27.2656V26.7947C56.0837 26.5828 56.2181 26.4227 56.487 26.3238L57.2744 26.0224C58.2634 25.6457 59.0171 25.123 59.5357 24.4543C60.0542 23.7856 60.3135 22.792 60.3135 21.4734C60.3135 20.5316 60.1982 19.7875 59.9678 19.246C59.7373 18.7044 59.3532 18.3136 58.8203 18.0734C58.2874 17.8332 57.5576 17.7155 56.6358 17.7155H55.9829H55.9252L54.4225 17.6967C54.2929 17.6967 54.1921 17.6637 54.1152 17.5931C54.0384 17.5224 54 17.4283 54 17.3011V14.4144C54 14.2873 54.0384 14.1884 54.1152 14.113C54.1921 14.0377 54.2929 14 54.4225 14H54.749C54.8786 14 54.9794 14.0377 55.0562 14.113C55.1331 14.1884 55.1715 14.2873 55.1715 14.4144V16.623H56.7366V16.6183ZM64.6824 27.3928C64.5528 27.3928 64.452 27.3551 64.3752 27.2798C64.2984 27.2044 64.2599 27.1055 64.2599 26.9784V17.028C64.2599 16.9008 64.2984 16.8019 64.3752 16.7266C64.452 16.6512 64.5528 16.6136 64.6824 16.6136H65.0089C65.1386 16.6136 65.2394 16.6512 65.3162 16.7266C65.393 16.8019 65.4314 16.9008 65.4314 17.028V26.9784C65.4314 27.1055 65.393 27.2044 65.3162 27.2798C65.2394 27.3551 65.1386 27.3928 65.0089 27.3928H64.6824ZM72.4218 27.5482C72.3834 27.5623 72.3306 27.567 72.2682 27.567C72.0617 27.567 71.9609 27.4681 71.9609 27.2656V26.7947C71.9609 26.5828 72.0953 26.4227 72.3642 26.3238L73.1516 26.0224C74.1406 25.6457 74.8944 25.123 75.4129 24.4543C75.9314 23.7856 76.1907 22.792 76.1907 21.4734C76.1907 20.5316 76.0754 19.7875 75.845 19.246C75.6145 18.7044 75.2305 18.3136 74.6975 18.0734C74.1646 17.8332 73.4348 17.7155 72.513 17.7155H69.085C68.9554 17.7155 68.8546 17.6778 68.7778 17.6025C68.701 17.5271 68.6625 17.4283 68.6625 17.3011V17.0374C68.6625 16.9102 68.701 16.8114 68.7778 16.736C68.8546 16.6607 68.9554 16.623 69.085 16.623H72.6091C73.8045 16.623 74.7407 16.7831 75.4273 17.1033C76.1138 17.4235 76.6084 17.9415 76.9108 18.662C77.2133 19.3778 77.3621 20.362 77.3621 21.6053C77.3621 23.2299 76.9876 24.4684 76.2339 25.3255C75.4849 26.1825 74.4815 26.8277 73.2236 27.2704L72.4218 27.5482ZM69.0899 31C68.9602 31 68.8594 30.9623 68.7826 30.887C68.7058 30.8116 68.6674 30.7127 68.6674 30.5856V20.3526C68.6674 20.2255 68.7058 20.1266 68.7826 20.0512C68.8594 19.9759 68.9602 19.9382 69.0899 19.9382H69.4163C69.546 19.9382 69.6468 19.9759 69.7236 20.0512C69.8004 20.1266 69.8388 20.2255 69.8388 20.3526V30.5856C69.8388 30.7127 69.8004 30.8116 69.7236 30.887C69.6468 30.9623 69.546 31 69.4163 31H69.0899ZM88.2414 27.3928C88.1118 27.3928 88.011 27.3551 87.9342 27.2798C87.8573 27.2044 87.8189 27.1055 87.8189 26.9784V21.3133C87.8189 18.9116 86.5946 17.7061 84.1413 17.7061H80.8333C80.7037 17.7061 80.6029 17.6684 80.5261 17.5931C80.4492 17.5177 80.4108 17.4188 80.4108 17.2917V17.028C80.4108 16.9008 80.4492 16.8019 80.5261 16.7266C80.6029 16.6512 80.7037 16.6136 80.8333 16.6136H84.2421C85.8457 16.6136 87.0411 17.0091 87.8237 17.7956C88.6063 18.582 89 19.7263 89 21.2238V26.9831C89 27.1103 88.9616 27.2091 88.8848 27.2845C88.8079 27.3598 88.7071 27.3975 88.5775 27.3975H88.2414V27.3928ZM80.8285 27.3928C80.6989 27.3928 80.5981 27.3551 80.5213 27.2798C80.4444 27.2044 80.406 27.1055 80.406 26.9784V20.3526C80.406 20.2255 80.4444 20.1266 80.5213 20.0512C80.5981 19.9759 80.6989 19.9382 80.8285 19.9382H81.155C81.2846 19.9382 81.3855 19.9759 81.4623 20.0512C81.5391 20.1266 81.5775 20.2255 81.5775 20.3526V26.9784C81.5775 27.1055 81.5391 27.2044 81.4623 27.2798C81.3855 27.3551 81.2846 27.3928 81.155 27.3928H80.8285Z" fill="#4787EF"/>
<defs>
<linearGradient id="paint0_linear" x1="110.847" y1="27.1547" x2="110.847" y2="39.9579" gradientUnits="userSpaceOnUse">
<stop offset="0.0302382" stop-color="#253A84"/>
<stop offset="0.610132" stop-color="#5928E4"/>
</linearGradient>
<linearGradient id="paint1_linear" x1="116.392" y1="0" x2="116.392" y2="27.2168" gradientUnits="userSpaceOnUse">
<stop stop-color="#498DF7"/>
<stop offset="1" stop-color="#1B2467"/>
</linearGradient>
<linearGradient id="paint2_linear" x1="126.047" y1="13.9456" x2="126.047" y2="27.1844" gradientUnits="userSpaceOnUse">
<stop offset="0.376701" stop-color="#9AFFF9"/>
<stop offset="1" stop-color="#3C6ECD"/>
</linearGradient>
</defs>
</svg>
