<svg width="22" height="25" viewBox="0 0 22 25" fill="none" xmlns="http://www.w3.org/2000/svg">
<path d="M18.0723 17.4639C17.1566 17.4639 16.3373 17.8253 15.7108 18.3916L7.12048 13.3916C7.18072 13.1145 7.22892 12.8373 7.22892 12.5482C7.22892 12.259 7.18072 11.9819 7.12048 11.7048L15.6145 6.75301C16.2651 7.35542 17.1205 7.72892 18.0723 7.72892C20.0723 7.72892 21.6867 6.11446 21.6867 4.11446C21.6867 2.11446 20.0723 0.5 18.0723 0.5C16.0723 0.5 14.4578 2.11446 14.4578 4.11446C14.4578 4.40361 14.506 4.68072 14.5663 4.95783L6.07229 9.90964C5.42169 9.30723 4.56626 8.93373 3.61446 8.93373C1.61446 8.93373 0 10.5482 0 12.5482C0 14.5482 1.61446 16.1627 3.61446 16.1627C4.56626 16.1627 5.42169 15.7892 6.07229 15.1867L14.6506 20.1988C14.5904 20.4518 14.5542 20.7169 14.5542 20.9819C14.5542 22.9217 16.1325 24.5 18.0723 24.5C20.012 24.5 21.5904 22.9217 21.5904 20.9819C21.5904 19.0422 20.012 17.4639 18.0723 17.4639Z" fill="white"/>
</svg>
