<svg id="Layer_1" data-name="Layer 1" xmlns="http://www.w3.org/2000/svg" viewBox="0 0 20 20"><defs><style>.cls-1{fill:#218cd6;}</style></defs><title>icon</title><path class="cls-1" d="M18.72,3.26c-.15.59-.29,1.18-.45,1.77-.38,1.43-.78,2.87-1.17,4.3s-.78,2.89-1.18,4.33c-.18.68-.36,1.35-.55,2a1.68,1.68,0,0,1-.4.74,1.14,1.14,0,0,1-1.25.2L12.11,16l-1.73-.7-.09,0A1.85,1.85,0,0,1,10,16a23.19,23.19,0,0,1-1.26,2,1.49,1.49,0,0,1-.53.47,1.21,1.21,0,0,1-1.57-.61c-.42-.92-.83-1.86-1.24-2.79a2.4,2.4,0,0,1-.2-.87,1.6,1.6,0,0,1,.32-1.07H5.34a3.2,3.2,0,0,1-1.19-.24l-1.63-.65a2,2,0,0,1-1-.71,1.54,1.54,0,0,1,.25-2.05,2.1,2.1,0,0,1,.52-.36L6.63,6.8,9.77,5.15,12.4,3.77,15.58,2.1c.32-.16.63-.34,1-.47a1.57,1.57,0,0,1,1.51.14,1.44,1.44,0,0,1,.65,1.08s0,0,0,.08ZM14.19,15.54a.25.25,0,0,0,0-.07c.19-.7.39-1.4.58-2.1.5-1.85,1-3.7,1.51-5.56.38-1.41.77-2.82,1.15-4.23a2.35,2.35,0,0,0,.09-.53.32.32,0,0,0-.37-.36,1.21,1.21,0,0,0-.41.12l-.9.47L12,5.31,7.4,7.72,2.88,10.09a1.27,1.27,0,0,0-.34.27.33.33,0,0,0,0,.48,1.15,1.15,0,0,0,.29.2c.54.22,1.08.42,1.62.65a2.27,2.27,0,0,0,1.26.18,2,2,0,0,0,1-.39L8.64,10,11,8.11,13.91,5.8l.77-.59.15-.08,0,0-.15.2L13.45,6.7,9,11.46c-.22.24-.46.48-.66.74a.66.66,0,0,0,.1,1,1.61,1.61,0,0,0,.43.23c1.26.52,2.53,1,3.8,1.53ZM7.75,17.33a1.83,1.83,0,0,0,.13-.16l.42-.62c.25-.4.5-.79.74-1.19s.11-.42-.15-.6a.18.18,0,0,0-.07,0L8,14.31c-.34-.19-.68-.38-1-.55a.74.74,0,0,0-.28-.08.26.26,0,0,0-.3.22.63.63,0,0,0,0,.24,3,3,0,0,0,.15.51l1,2.29Z"/></svg>