<svg id="Layer_1" data-name="Layer 1" xmlns="http://www.w3.org/2000/svg" viewBox="0 0 20 20"><defs><style>.cls-1{fill:#34b448;}</style></defs><title>icon</title><path class="cls-1" d="M1.54,18.5c.47-1.32.91-2.57,1.37-3.82a.42.42,0,0,0-.05-.42A8.14,8.14,0,0,1,1.68,8.75a8.43,8.43,0,1,1,11.66,8.93,7.93,7.93,0,0,1-7.07-.3.7.7,0,0,0-.45-.06l-3.9,1.09Zm2.07-1.91,2.26-.65a.5.5,0,0,1,.44.07,6.92,6.92,0,0,0,5.84.73,7.14,7.14,0,1,0-7.9-2.65.53.53,0,0,1,.06.55C4.08,15.26,3.86,15.9,3.61,16.59Z"/><path class="cls-1" d="M7.05,5.39c.53,0,.61.05.79.51S8.25,7,8.48,7.56a.79.79,0,0,1-.14.78,4,4,0,0,1-.41.51.4.4,0,0,0-.06.52,6.26,6.26,0,0,0,3.06,2.84.36.36,0,0,0,.48-.12c.21-.3.44-.58.65-.88a.36.36,0,0,1,.49-.15c.61.31,1.23.62,1.83.95a.56.56,0,0,1,.19.38,2.07,2.07,0,0,1-2.43,2.06,7.06,7.06,0,0,1-3.87-2A10,10,0,0,1,5.71,8.85a2.9,2.9,0,0,1,.5-3.09A.88.88,0,0,1,7.05,5.39Z"/></svg>